<mxfile host="app.diagrams.net" agent="Mozilla/5.0 (Windows NT 10.0; Win64; x64) AppleWebKit/537.36 (KHTML, like Gecko) Chrome/135.0.0.0 Safari/537.36 Edg/135.0.0.0" version="26.2.12">
  <diagram name="第 1 页" id="jiCCyVHoRuuDWaUez6bW">
    <mxGraphModel dx="1006" dy="683" grid="0" gridSize="10" guides="1" tooltips="1" connect="1" arrows="1" fold="1" page="1" pageScale="1" pageWidth="827" pageHeight="1169" math="0" shadow="0">
      <root>
        <mxCell id="0" />
        <mxCell id="1" parent="0" />
        <mxCell id="3" value="" style="ellipse;whiteSpace=wrap;fillColor=#FF8000;strokeColor=#FF8000;" parent="1" vertex="1">
          <mxGeometry x="100" y="155" width="30" height="30" as="geometry" />
        </mxCell>
        <mxCell id="5" value="增强现实" style="text;strokeColor=none;fillColor=none;fontSize=10;fontFamily=黑体;" parent="1" vertex="1">
          <mxGeometry x="200" y="175" width="60" height="15" as="geometry" />
        </mxCell>
        <mxCell id="6" value="" style="ellipse;whiteSpace=wrap;fillColor=#A09078;strokeColor=#A09078;" parent="1" vertex="1">
          <mxGeometry x="310" y="160" width="20" height="20" as="geometry" />
        </mxCell>
        <mxCell id="7" value="增强虚拟" style="text;strokeColor=none;fillColor=none;fontSize=10;fontFamily=黑体;" parent="1" vertex="1">
          <mxGeometry x="400" y="175" width="64" height="20" as="geometry" />
        </mxCell>
        <mxCell id="4" value="" style="ellipse;whiteSpace=wrap;fillColor=#80C0FF;strokeColor=#80C0FF;aspect=fixed;" parent="1" vertex="1">
          <mxGeometry x="510" y="155" width="30" height="30" as="geometry" />
        </mxCell>
        <mxCell id="8" value="混合现实" style="text;strokeColor=none;fillColor=none;fontSize=10;fontFamily=黑体;" parent="1" vertex="1">
          <mxGeometry x="297" y="121" width="100" height="19" as="geometry" />
        </mxCell>
        <mxCell id="9" value="" style="line;strokeColor=#808080;strokeWidth=2;" parent="1" source="P927rh4zLfYeR729UNTc-11" target="4" edge="1">
          <mxGeometry relative="1" as="geometry" />
        </mxCell>
        <mxCell id="P927rh4zLfYeR729UNTc-10" value="" style="line;strokeColor=#808080;strokeWidth=2;" parent="1" source="3" target="P927rh4zLfYeR729UNTc-9" edge="1">
          <mxGeometry relative="1" as="geometry">
            <mxPoint x="140" y="170" as="sourcePoint" />
            <mxPoint x="500" y="170" as="targetPoint" />
          </mxGeometry>
        </mxCell>
        <mxCell id="P927rh4zLfYeR729UNTc-9" value="" style="verticalLabelPosition=bottom;verticalAlign=top;html=1;shape=mxgraph.basic.rect;fillColor2=none;strokeWidth=1;size=20;indent=5;strokeColor=none;gradientColor=light-dark(#a09078, #ededed);gradientDirection=east;fillColor=light-dark(#ff8000, #ededed);" parent="1" vertex="1">
          <mxGeometry x="120" y="165" width="200" height="10" as="geometry" />
        </mxCell>
        <mxCell id="P927rh4zLfYeR729UNTc-12" value="" style="line;strokeColor=#808080;strokeWidth=2;" parent="1" source="P927rh4zLfYeR729UNTc-9" target="P927rh4zLfYeR729UNTc-11" edge="1">
          <mxGeometry relative="1" as="geometry">
            <mxPoint x="320" y="170" as="sourcePoint" />
            <mxPoint x="500" y="170" as="targetPoint" />
          </mxGeometry>
        </mxCell>
        <mxCell id="P927rh4zLfYeR729UNTc-11" value="" style="verticalLabelPosition=bottom;verticalAlign=top;html=1;shape=mxgraph.basic.rect;fillColor2=none;strokeWidth=1;size=20;indent=5;strokeColor=none;fillColor=light-dark(#a19077, #ededed);gradientColor=light-dark(#80c0ff, #ededed);gradientDirection=east;" parent="1" vertex="1">
          <mxGeometry x="320" y="165" width="200" height="10" as="geometry" />
        </mxCell>
        <mxCell id="P927rh4zLfYeR729UNTc-13" value="" style="endArrow=none;html=1;rounded=0;" parent="1" edge="1">
          <mxGeometry width="50" height="50" relative="1" as="geometry">
            <mxPoint x="120" y="140" as="sourcePoint" />
            <mxPoint x="520" y="140" as="targetPoint" />
          </mxGeometry>
        </mxCell>
        <mxCell id="P927rh4zLfYeR729UNTc-14" value="" style="endArrow=none;html=1;rounded=0;" parent="1" edge="1">
          <mxGeometry width="50" height="50" relative="1" as="geometry">
            <mxPoint x="120" y="150" as="sourcePoint" />
            <mxPoint x="120" y="130" as="targetPoint" />
          </mxGeometry>
        </mxCell>
        <mxCell id="P927rh4zLfYeR729UNTc-15" value="" style="endArrow=none;html=1;rounded=0;" parent="1" edge="1">
          <mxGeometry width="50" height="50" relative="1" as="geometry">
            <mxPoint x="520" y="150" as="sourcePoint" />
            <mxPoint x="520" y="130" as="targetPoint" />
          </mxGeometry>
        </mxCell>
        <mxCell id="P927rh4zLfYeR729UNTc-16" value="&quot;介点&quot;" style="text;strokeColor=none;fillColor=none;fontSize=10;fontFamily=黑体;" parent="1" vertex="1">
          <mxGeometry x="303" y="180" width="40" height="15" as="geometry" />
        </mxCell>
        <mxCell id="P927rh4zLfYeR729UNTc-18" value="真实环境" style="text;strokeColor=none;fillColor=none;fontSize=10;fontFamily=黑体;" parent="1" vertex="1">
          <mxGeometry x="100" y="185" width="30" height="15" as="geometry" />
        </mxCell>
        <mxCell id="P927rh4zLfYeR729UNTc-19" value="虚拟环境" style="text;strokeColor=none;fillColor=none;fontSize=10;fontFamily=黑体;" parent="1" vertex="1">
          <mxGeometry x="500" y="185" width="30" height="15" as="geometry" />
        </mxCell>
        <mxCell id="B9U2kmhEAturzNjUOO2V-10" style="edgeStyle=orthogonalEdgeStyle;rounded=0;orthogonalLoop=1;jettySize=auto;html=1;exitX=0.5;exitY=1;exitDx=0;exitDy=0;" edge="1" parent="1" source="5" target="5">
          <mxGeometry relative="1" as="geometry" />
        </mxCell>
      </root>
    </mxGraphModel>
  </diagram>
</mxfile>
